<svg xmlns="http://www.w3.org/2000/svg" version="1.1" xmlns:xlink="http://www.w3.org/1999/xlink" xmlns:svgjs="http://svgjs.dev/svgjs" width="1440" height="560" preserveAspectRatio="none" viewBox="0 0 1440 560"><g mask="url(&quot;#SvgjsMask1000&quot;)" fill="none"><rect width="1440" height="560" x="0" y="0" fill="#1e3266"></rect><path d="M1488 560L0 560 L0 344.01Q50.02 274.03, 120 324.05Q174.99 259.04, 240 314.03Q263.26 265.29, 312 288.56Q367.08 271.64, 384 326.73Q452.77 275.5, 504 344.27Q554.5 322.77, 576 373.27Q605.1 330.37, 648 359.47Q690.4 281.87, 768 324.27Q798.15 282.42, 840 312.57Q904.93 305.5, 912 370.43Q933.47 271.9, 1032 293.37Q1091.79 281.16, 1104 340.95Q1126.61 291.56, 1176 314.17Q1267.26 285.44, 1296 376.7Q1308.45 269.15, 1416 281.61Q1457.92 251.53, 1488 293.45z" fill="#182f5d"></path><path d="M1512 560L0 560 L0 386.04Q49.6 363.64, 72 413.25Q82.21 351.46, 144 361.66Q214.3 311.96, 264 382.26Q329.6 327.86, 384 393.46Q429.69 367.15, 456 412.85Q498.73 335.58, 576 378.31Q623.86 354.17, 648 402.03Q692.38 374.41, 720 418.8Q736.22 363.01, 792 379.23Q815.8 331.03, 864 354.84Q943.28 314.12, 984 393.4Q1006.25 343.65, 1056 365.91Q1138.13 328.05, 1176 410.18Q1224.48 386.66, 1248 435.15Q1274.63 341.78, 1368 368.41Q1410.61 339.02, 1440 381.63Q1462.91 332.54, 1512 355.45z" fill="#25467d"></path><path d="M1512 560L0 560 L0 447.11Q63.88 438.99, 72 502.87Q93.48 452.35, 144 473.82Q163 420.81, 216 439.81Q260.29 412.1, 288 456.38Q351.88 448.25, 360 512.13Q405.35 437.48, 480 482.82Q514.38 397.2, 600 431.59Q648.91 408.5, 672 457.41Q731.87 445.27, 744 505.14Q766.92 456.06, 816 478.98Q863.97 406.95, 936 454.92Q960.3 407.22, 1008 431.52Q1063.97 415.49, 1080 471.46Q1153.65 425.12, 1200 498.77Q1214.55 441.32, 1272 455.87Q1340.31 404.18, 1392 472.48Q1464.55 425.02, 1512 497.57z" fill="#356cb1"></path><path d="M1512 560L0 560 L0 534.99Q77.07 492.06, 120 569.12Q149.11 478.23, 240 507.33Q285.36 480.69, 312 526.05Q391.8 485.85, 432 565.64Q457.25 518.88, 504 544.13Q532.32 500.45, 576 528.77Q631.48 512.25, 648 567.73Q695.93 495.66, 768 543.6Q797.11 500.71, 840 529.82Q918.47 488.29, 960 566.75Q1008.2 494.95, 1080 543.16Q1106 497.16, 1152 523.16Q1234.57 485.72, 1272 568.29Q1318.8 495.09, 1392 541.88Q1438.18 468.06, 1512 514.24z" fill="white"></path></g><defs><mask id="SvgjsMask1000"><rect width="1440" height="560" fill="#ffffff"></rect></mask></defs></svg>